<svg xmlns="http://www.w3.org/2000/svg" fill="white" class="w-6 h-6" viewBox="0 0 24 24">
  <path d="M19 0h-14C2.239 0 0 2.239 0 5v14c0 
  2.761 2.239 5 5 5h14c2.761 0 5-2.239 
  5-5V5c0-2.761-2.239-5-5-5zM7.119 
  20.452H3.56V9h3.559v11.452zM5.34 
  7.433c-1.137 0-2.06-.924-2.06-2.061 
  0-1.137.923-2.06 2.06-2.06 1.138 
  0 2.061.923 2.061 2.06 0 1.137-.923 
  2.061-2.061 2.061zM20.452 
  20.452h-3.558v-5.605c0-1.336-.027-3.058-1.863-3.058-1.863 
  0-2.149 1.454-2.149 2.958v5.705H9.324V9h3.414v1.561h.048c.476-.9 
  1.637-1.849 3.368-1.849 3.601 0 4.268 2.371 
  4.268 5.451v6.289z"/>
</svg>
