<svg xmlns="http://www.w3.org/2000/svg" fill="currentColor" class="w-6 h-6" viewBox="0 0 24 24">
  <path d="M22.162 5.656c-.793.352-1.644.59-2.538.698a4.482 4.482 
  0 0 0 1.968-2.476 8.924 8.924 0 0 1-2.828 
  1.082A4.466 4.466 0 0 0 15.4 3a4.482 4.482 
  0 0 0-4.48 4.48c0 .35.04.693.114 
  1.02A12.72 12.72 0 0 1 3.065 
  4.216a4.465 4.465 0 0 0-.606 
  2.253 4.48 4.48 0 0 0 1.995 
  3.73 4.453 4.453 0 0 1-2.03-.561v.056a4.483 
  4.483 0 0 0 3.59 4.392 4.49 4.49 
  0 0 1-2.025.077 4.482 4.482 
  0 0 0 4.184 3.112A8.984 8.984 
  0 0 1 2 19.54a12.68 12.68 
  0 0 0 6.875 2.014c8.262 0 
  12.785-6.848 12.785-12.785 
  0-.195-.004-.388-.013-.58a9.132 
  9.132 0 0 0 2.241-2.333z"/>
</svg>
